<svg width="100%" height="100%" viewBox="0 0 1440 4616" version="1.1" xmlns="http://www.w3.org/2000/svg" xmlns:xlink="http://www.w3.org/1999/xlink">
  <desc>Background</desc>
  <defs></defs>
  <g id="Page-1" stroke="none" stroke-width="1" fill="none" fill-rule="evenodd">
    <g id="Background" transform="translate(-4200.000000, -1432.000000)">
      <path d="M4986.12064,301.565131 L7052.26385,221.425004 C7107.45083,219.28445 7153.92398,262.287072 7156.06453,317.47405 C7156.18804,320.658406 7156.15927,323.846847 7155.97831,327.028456 L6933.6523,4235.87257 C6932.27131,4260.15257 6922.08976,4283.09726 6905.01316,4300.41244 L5874.46792,5345.35555 C5835.68733,5384.67794 5772.37236,5385.11717 5733.04996,5346.33658 C5718.04649,5331.53984 5708.10074,5312.38167 5704.63231,5291.59663 L4891.36034,417.949533 C4882.26998,363.47431 4919.06169,311.944229 4973.53691,302.853876 C4977.70009,302.159162 4981.90307,301.728719 4986.12064,301.565131 Z" id="BG2" fill="#253659" opacity="0.326958954" style="mix-blend-mode: lighten;" transform="translate(6022.722731, 2798.195667) rotate(-210.000000) translate(-6022.722731, -2798.195667) "></path>
      <path d="M2031.98595,3699.2262 L4929.88552,3699.2262 C4985.114,3699.2262 5029.88552,3743.99772 5029.88552,3799.2262 C5029.88552,3820.99329 5022.78322,3842.16598 5009.65686,3859.52988 L1961.97662,7891.08316 C1928.67181,7935.13965 1865.95809,7943.85561 1821.9016,7910.55081 C1809.75817,7901.3709 1799.87082,7889.53975 1792.99321,7875.95918 L777.251036,5870.26965 C762.015963,5840.1864 762.96849,5804.45083 779.784521,5775.2219 L1945.30736,3749.35815 C1963.15064,3718.34371 1996.20497,3699.2262 2031.98595,3699.2262 Z" id="BG" fill="#132638" transform="translate(2898.174246, 5815.005689) rotate(119.999992) translate(-2898.174246, -5815.005689) "></path>
    </g>
  </g>
</svg>
